<svg width="119" height="144" viewBox="0 0 119 144" fill="none" xmlns="http://www.w3.org/2000/svg">
<path d="M43.1553 9.73775C34.2658 15.1056 20.9316 23.1438 13.5151 27.6215L0 35.7407V71.751V107.761L11.9646 114.963C18.5283 118.902 31.7075 126.832 41.2172 132.577C50.7527 138.323 58.7635 143.151 59.0736 143.286C59.6421 143.556 58.9186 143.987 106.208 115.476L119 107.761V71.751V35.7407L106.208 28.0261C68.6866 5.42191 59.668 0.00012207 59.4871 0.00012207C59.3837 0.00012207 52.0447 4.3969 43.1553 9.73775ZM75.1987 15.699C82.9511 20.3655 94.3989 27.2709 100.653 30.9933C106.906 34.7427 112.462 38.1144 113.005 38.4651L113.961 39.1124V71.751V104.39L113.005 105.037C112.462 105.388 105.873 109.38 98.3268 113.911C90.8069 118.416 79.0491 125.483 72.2269 129.61C65.4048 133.737 59.6938 137.109 59.5388 137.109C59.3837 137.109 51.993 132.739 43.1294 127.398C34.2658 122.084 22.0945 114.748 16.0992 111.133L5.1683 104.578V71.751V38.9236L16.0992 32.3689C22.0945 28.7544 34.3175 21.3905 43.2586 16.0227L59.5388 6.23112L60.314 6.71666C60.7533 7.01337 67.4463 11.0325 75.1987 15.699Z" fill="white"/>
<path d="M75.457 49.6321V55.0269H80.7545H86.052V49.6321V44.2373H80.7545H75.457V49.6321Z" fill="white"/>
<path d="M57.2918 51.3315C55.6638 53.7322 54.3717 55.7822 54.4234 55.8901C54.6818 56.3217 62.5634 62.0671 62.796 61.9862C63.2095 61.8513 68.998 53.3006 68.7912 53.1387C68.5328 52.896 60.9096 47.3393 60.5736 47.1235C60.3928 47.0156 59.0748 48.742 57.2918 51.3315Z" fill="white"/>
<path d="M33.0781 66.2215V71.7512H38.3756H43.6731V66.2215V60.6919H38.3756H33.0781V66.2215Z" fill="white"/>
<path d="M68.3238 68.1364C66.3598 69.7009 64.4992 71.1575 64.2408 71.3732C63.7757 71.6969 63.9307 71.9937 66.825 76.0398C68.5047 78.4135 70.0035 80.3556 70.1068 80.3826C70.4169 80.3826 78.2986 74.1246 78.2986 73.8549C78.2986 73.5312 72.3292 65.2771 72.0966 65.2771C71.9933 65.2771 70.2877 66.5719 68.3238 68.1364Z" fill="white"/>
<path d="M33.0781 79.9779V85.5076H38.3756H43.6731L43.6214 80.0318L43.5439 74.5831L38.3239 74.5022L33.0781 74.4482V79.9779Z" fill="white"/>
<path d="M46.2559 79.9779V85.5076H51.5534H56.8509V79.9779V74.4482H51.5534H46.2559V79.9779Z" fill="white"/>
<path d="M33.0781 93.8696V99.2644H38.3756H43.6731V93.8696V88.4748H38.3756H33.0781V93.8696Z" fill="white"/>
<path d="M46.2559 93.8696V99.2644H51.5534H56.8509V93.8696V88.4748H51.5534H46.2559V93.8696Z" fill="white"/>
<path d="M59.4336 93.8696V99.2644H64.7311H70.0286V93.8696V88.4748H64.7311H59.4336V93.8696Z" fill="white"/>
</svg>
