<svg width="292" height="79" viewBox="0 0 292 79" fill="none" xmlns="http://www.w3.org/2000/svg">
<path d="M273.756 36.1306V48.0115H275.326H276.896L276.948 40.8283L277.027 33.6724L282.364 33.5905C286.472 33.5359 287.755 33.6178 287.938 33.8636C288.042 34.0548 288.147 37.3323 288.147 41.1014V48.0115H289.743H291.313L291.235 40.5552C291.13 29.958 291.522 30.4496 282.914 30.2584L277.027 30.1218L276.948 27.1721L276.87 24.2496H275.326H273.756V36.1306Z" fill="white"/>
<path d="M160.719 34.6557C160.719 45.8538 160.745 46.045 162.393 47.2741C163.126 47.8203 163.571 47.8749 167.077 47.9569L170.923 48.0388V46.4001V44.734H167.705C165.559 44.734 164.382 44.6248 164.173 44.4063C163.937 44.1605 163.859 42.549 163.859 38.8072V33.5359H167.391H170.923V31.8972V30.2584H167.391H163.859V27.3906V24.5228H162.289H160.719V34.6557Z" fill="white"/>
<path d="M83.5288 26.4074C83.0317 26.6805 82.3775 27.336 82.0897 27.8276C81.5926 28.7016 81.5664 29.2479 81.5664 37.0046C81.5664 44.8979 81.5926 45.2803 82.1159 45.9904C82.4037 46.4001 82.9794 47.0009 83.3718 47.3014C84.0522 47.8476 84.4708 47.8749 93.3672 47.9569L102.63 48.0388V46.3728V44.734H94.0213C85.3866 44.734 85.3866 44.734 84.9941 44.1331C84.654 43.6142 84.5755 42.4398 84.5755 36.868C84.5755 32.7985 84.6801 30.0126 84.8371 29.6849C85.0988 29.1932 85.4913 29.1659 93.8643 29.1659H102.63V27.5272V25.8884H93.5242C85.1511 25.8884 84.3661 25.9157 83.5288 26.4074Z" fill="white"/>
<path d="M195.781 26.4074C195.284 26.6805 194.629 27.336 194.342 27.8277C193.845 28.7017 193.818 29.2479 193.818 37.0046C193.818 44.8979 193.845 45.2803 194.368 45.9904C194.656 46.4001 195.231 47.001 195.624 47.3014C196.304 47.8477 196.67 47.875 204.416 47.875C212.161 47.875 212.527 47.8477 213.207 47.3014C214.856 46.0178 214.934 45.7719 214.986 40.6645C215.013 37.6875 214.908 35.9941 214.751 35.9668C213.914 35.8848 207.372 35.8575 207.111 35.9395C206.875 36.0214 206.77 36.6223 206.77 37.6601V39.2716H209.256H211.768L211.69 41.9209L211.611 44.5975L204.546 44.6794C198.136 44.7341 197.455 44.7068 197.168 44.2698C196.67 43.5596 196.697 29.9034 197.194 29.4664C197.429 29.2479 199.601 29.166 204.573 29.2206L211.611 29.3025L211.69 30.1765L211.768 31.0778H213.338C214.385 31.0778 214.882 30.9686 214.908 30.7228C214.986 29.603 214.777 28.3739 214.332 27.6365C213.364 25.9704 212.893 25.8885 204.363 25.8885C197.377 25.8885 196.618 25.9431 195.781 26.4074Z" fill="white"/>
<path d="M107.653 30.8046C107.182 31.1051 106.581 31.7333 106.293 32.2249C105.796 33.0716 105.77 33.6178 105.77 40.5552V48.0115H107.339H108.909L108.962 40.8283L109.04 33.6724L114.09 33.5905L119.114 33.5359V31.8971V30.2584H113.829C108.988 30.2584 108.438 30.313 107.653 30.8046Z" fill="white"/>
<path d="M120.686 37.742C120.686 45.0344 120.686 45.2256 121.287 46.1269C122.386 47.8749 123.014 48.0115 129.268 48.0115H134.841L134.763 49.7049L134.684 51.4255L129.137 51.5075L123.564 51.5621V53.2009V54.8396H129.268C135.626 54.8396 136.254 54.703 137.353 52.955C137.955 52.0264 137.955 51.9991 137.955 41.1561V30.2584H136.385H134.815L134.763 37.4143L134.684 44.5974H129.32H123.956L123.878 37.4143L123.825 30.2584H122.255H120.686V37.742Z" fill="white"/>
<path d="M141.094 42.6854V55.1125H142.664H144.234V51.5892V48.0386L150.095 47.9567C156.558 47.8748 156.636 47.8474 157.945 45.9902C158.468 45.2801 158.494 44.8704 158.494 39.1894C158.494 32.4432 158.363 31.8423 156.715 30.8045C155.93 30.2855 155.354 30.2582 148.499 30.2582H141.094V42.6854ZM155.328 33.9727C155.59 34.7101 155.511 43.6413 155.223 44.2149C154.962 44.7065 154.621 44.7338 149.912 44.7338C146.327 44.7338 144.783 44.6519 144.548 44.4061C144.207 44.051 144.077 34.0547 144.417 33.7269C144.495 33.6177 146.955 33.5357 149.885 33.5357C154.464 33.5357 155.197 33.5903 155.328 33.9727Z" fill="white"/>
<path d="M175.632 30.4496C175.423 30.5315 174.952 30.8593 174.638 31.187C173.356 32.3888 173.277 32.8531 173.277 39.2169C173.277 44.9798 173.304 45.2256 173.879 46.0996C175.03 47.8749 175.606 48.0115 181.912 48.0115C188.218 48.0115 188.846 47.8749 189.945 46.1269C190.521 45.2256 190.547 44.9798 190.547 39.2169C190.547 32.498 190.416 31.8152 188.846 30.8046C188.061 30.2857 187.59 30.2584 182.017 30.2857C178.72 30.2857 175.842 30.3676 175.632 30.4496ZM187.276 39.1349V44.5974H181.912H176.548L176.47 39.4081C176.443 36.5676 176.47 34.0821 176.548 33.8909C176.627 33.5905 177.804 33.5359 181.964 33.5905L187.276 33.6724V39.1349Z" fill="white"/>
<path d="M220.167 30.8046C219.696 31.1051 219.094 31.7333 218.807 32.2249C218.309 33.0716 218.283 33.6178 218.283 40.5552V48.0115H219.853H221.423L221.475 40.8283L221.554 33.6724L226.604 33.5905L231.628 33.5359V31.8971V30.2584H226.342C221.502 30.2584 220.952 30.313 220.167 30.8046Z" fill="white"/>
<path d="M233.721 31.8971V33.5359L240.734 33.5905L247.72 33.6724L247.799 35.5024L247.877 37.3596H240.786H233.695L233.774 41.3745C233.852 45.0344 233.905 45.4987 234.428 46.2635C235.553 47.9295 236.05 48.0115 243.9 48.0115H250.991V40.4186C250.991 29.6302 251.593 30.2584 241.126 30.2584H233.721V31.8971ZM247.851 42.6036V44.734H242.775C239.975 44.734 237.516 44.652 237.28 44.5701C236.966 44.4335 236.861 43.9965 236.861 42.5763C236.861 41.5657 236.914 40.6644 236.992 40.5825C237.071 40.5279 239.53 40.4732 242.487 40.4732H247.851V42.6036Z" fill="white"/>
<path d="M254.129 42.6854V55.1125H255.699H257.269V51.5892V48.0386L263.13 47.9567C269.593 47.8748 269.671 47.8474 270.98 45.9902C271.503 45.2801 271.529 44.8704 271.529 39.1894C271.529 32.4432 271.398 31.8423 269.75 30.8045C268.965 30.2855 268.389 30.2582 261.534 30.2582H254.129V42.6854ZM268.363 33.9727C268.625 34.7101 268.546 43.6413 268.258 44.2149C267.997 44.7065 267.657 44.7338 262.947 44.7338C259.362 44.7338 257.818 44.6519 257.583 44.4061C257.243 44.051 257.112 34.0547 257.452 33.7269C257.53 33.6177 259.99 33.5357 262.921 33.5357C267.5 33.5357 268.232 33.5903 268.363 33.9727Z" fill="white"/>
<path d="M23.7841 5.36666C18.8849 8.32502 11.536 12.7551 7.44856 15.2229L0 19.6976V39.5438V59.3901L6.59404 63.3593C10.2115 65.5298 17.4749 69.9004 22.716 73.0669C27.9713 76.2334 32.3863 78.8944 32.5572 78.9687C32.8705 79.1174 32.4717 79.3553 58.5346 63.6418L65.5843 59.3901V39.5438V19.6976L58.5346 15.4459C37.8552 2.98808 32.8847 0 32.785 0C32.7281 0 28.6834 2.42317 23.7841 5.36666ZM41.4442 8.65207C45.7168 11.2239 52.026 15.0296 55.4725 17.0812C58.9191 19.1475 61.9811 21.0058 62.2802 21.1991L62.8072 21.5558V39.5438V57.5318L62.2802 57.8886C61.9811 58.0819 58.3494 60.2821 54.1908 62.7796C50.0463 65.2622 43.5662 69.1571 39.8063 71.4316C36.0465 73.7061 32.899 75.5644 32.8135 75.5644C32.7281 75.5644 28.6549 73.1561 23.7699 70.2126C18.8849 67.284 12.1769 63.2404 8.87276 61.2484L2.8484 57.6359V39.5438V21.4518L8.87276 17.8393C12.1769 15.8473 18.9134 11.7888 23.8411 8.83047L32.8135 3.43407L33.2408 3.70166C33.4829 3.86519 37.1716 6.08024 41.4442 8.65207Z" fill="white"/>
<path d="M41.5859 27.3534V30.3267H44.5055H47.4251V27.3534V24.3802H44.5055H41.5859V27.3534Z" fill="white"/>
<path d="M31.5758 28.2903C30.6786 29.6133 29.9665 30.7432 29.995 30.8026C30.1374 31.0405 34.4812 34.207 34.6094 34.1624C34.8372 34.088 38.0274 29.3755 37.9135 29.2863C37.7711 29.1525 33.5697 26.0901 33.3846 25.9712C33.2849 25.9117 32.5585 26.8631 31.5758 28.2903Z" fill="white"/>
<path d="M18.2305 36.4964V39.5439H21.1501H24.0697V36.4964V33.4488H21.1501H18.2305V36.4964Z" fill="white"/>
<path d="M37.6553 37.5518C36.5729 38.414 35.5475 39.2168 35.405 39.3357C35.1487 39.5141 35.2341 39.6777 36.8292 41.9076C37.755 43.2158 38.581 44.2862 38.638 44.301C38.8089 44.301 43.1527 40.8521 43.1527 40.7034C43.1527 40.525 39.8628 35.976 39.7346 35.976C39.6776 35.976 38.7377 36.6896 37.6553 37.5518Z" fill="white"/>
<path d="M18.2305 44.0779V47.1255H21.1501H24.0697L24.0412 44.1077L23.9985 41.1047L21.1216 41.0601L18.2305 41.0304V44.0779Z" fill="white"/>
<path d="M25.4922 44.0779V47.1255H28.4118H31.3314V44.0779V41.0304H28.4118H25.4922V44.0779Z" fill="white"/>
<path d="M18.2305 51.7341V54.7073H21.1501H24.0697V51.7341V48.7608H21.1501H18.2305V51.7341Z" fill="white"/>
<path d="M25.4922 51.7341V54.7073H28.4118H31.3314V51.7341V48.7608H28.4118H25.4922V51.7341Z" fill="white"/>
<path d="M32.7559 51.7341V54.7073H35.6755H38.5951V51.7341V48.7608H35.6755H32.7559V51.7341Z" fill="white"/>
</svg>
