<svg width="100" height="100" viewBox="0 0 100 100" fill="none" xmlns="http://www.w3.org/2000/svg">
<path fill-rule="evenodd" clip-rule="evenodd" d="M50.0002 8.33331C27.0002 8.33331 8.3335 27 8.3335 50C8.3335 73 27.0002 91.6666 50.0002 91.6666C73.0002 91.6666 91.6668 73 91.6668 50C91.6668 27 73.0002 8.33331 50.0002 8.33331ZM76.5002 70.125C70.5418 62.875 56.0835 60.4166 50.0002 60.4166C43.9168 60.4166 29.4585 62.875 23.5002 70.125C19.2502 64.5416 16.6668 57.5833 16.6668 50C16.6668 31.625 31.6252 16.6666 50.0002 16.6666C68.3752 16.6666 83.3335 31.625 83.3335 50C83.3335 57.5833 80.7502 64.5416 76.5002 70.125ZM35.4168 39.5833C35.4168 31.5 41.9168 25 50.0002 25C58.0835 25 64.5835 31.5 64.5835 39.5833C64.5835 47.6666 58.0835 54.1666 50.0002 54.1666C41.9168 54.1666 35.4168 47.6666 35.4168 39.5833Z" fill="white"/>
</svg>
